<svg t="1684461389739" class="icon" viewBox="0 0 1024 1024" version="1.1" xmlns="http://www.w3.org/2000/svg"
     p-id="13800" width="128" height="128">
    <path d="M79.573333 39.338667a42.666667 42.666667 0 0 1 60.330667 0l372.053333 372.096L884.096 39.338667a42.666667 42.666667 0 0 1 60.330667 0l40.234666 40.234666a42.666667 42.666667 0 0 1 0 60.330667L612.522667 512l372.138666 372.096a42.666667 42.666667 0 0 1 0 60.330667l-40.234666 40.234666a42.666667 42.666667 0 0 1-60.330667 0l-372.138667-372.096-372.053333 372.096a42.666667 42.666667 0 0 1-60.330667 0l-40.234666-40.234666a42.666667 42.666667 0 0 1 0-60.330667L411.392 512 39.381333 139.904a42.666667 42.666667 0 0 1 0-60.330667l40.234667-40.234666z"
          fill="#2c2c2c" p-id="13801"></path>
</svg>