<svg t="1683444010648" viewBox="0 0 1024 1024" version="1.1" xmlns="http://www.w3.org/2000/svg" p-id="15448">
    <path d="M787.692308 157.538462a78.769231 78.769231 0 0 1 78.76923 78.76923v551.384616a78.769231 78.769231 0 0 1-78.76923 78.76923H236.307692a78.769231 78.769231 0 0 1-78.76923-78.76923V236.307692a78.769231 78.769231 0 0 1 78.76923-78.76923h551.384616z m0 39.384615H236.307692a39.384615 39.384615 0 0 0-39.108923 34.776615L196.923077 236.307692v551.384616a39.384615 39.384615 0 0 0 34.776615 39.108923L236.307692 827.076923h551.384616a39.384615 39.384615 0 0 0 39.108923-34.776615L827.076923 787.692308V236.307692a39.384615 39.384615 0 0 0-34.776615-39.108923L787.692308 196.923077z m-354.461539 39.384615a19.692308 19.692308 0 0 1 3.544616 39.069539L433.230769 275.692308H374.153846v472.615384H433.230769a19.692308 19.692308 0 0 1 3.544616 39.069539L433.230769 787.692308H275.692308a19.692308 19.692308 0 0 1-3.544616-39.069539L275.692308 748.307692h59.076923V275.692308H275.692308a19.692308 19.692308 0 0 1-3.544616-39.069539L275.692308 236.307692h157.538461z"
          p-id="15449"></path>
</svg>