<?xml version="1.0" standalone="no"?><!DOCTYPE svg PUBLIC "-//W3C//DTD SVG 1.1//EN" "http://www.w3.org/Graphics/SVG/1.1/DTD/svg11.dtd"><svg t="1684551587221" class="icon" viewBox="0 0 1024 1024" version="1.1" xmlns="http://www.w3.org/2000/svg" p-id="9056" xmlns:xlink="http://www.w3.org/1999/xlink" width="200" height="200"><path d="M744.64 961.856a93.44 93.44 0 0 1-44.032-11.072l-188.288-101.376-188.224 101.312a94.4 94.4 0 0 1-96.832-5.184 90.048 90.048 0 0 1-38.016-88.704l36.864-220.224-159.104-158.848A88.448 88.448 0 0 1 45.44 385.664a91.136 91.136 0 0 1 73.344-60.416l216.384-32.128 94.016-195.2a92.672 92.672 0 0 1 166.208 0l94.016 195.2 216.384 32.128c34.112 5.056 62.272 28.16 73.344 60.352 11.136 32.512 2.88 67.84-21.568 92.16l-159.168 158.848 36.928 220.288a90.112 90.112 0 0 1-37.952 88.64 92.992 92.992 0 0 1-52.736 16.32z m-232.384-171.776a28.16 28.16 0 0 1 13.184 3.328l201.408 108.416a38.208 38.208 0 0 0 38.976-2.112 33.792 33.792 0 0 0 14.592-33.536l-39.232-234.496a27.84 27.84 0 0 1 7.744-24.32l169.344-169.024a33.408 33.408 0 0 0 8.256-34.688 35.84 35.84 0 0 0-28.864-23.424l-230.976-34.368a27.648 27.648 0 0 1-20.992-15.424l-100.48-208.384a36.48 36.48 0 0 0-32.96-20.16 36.672 36.672 0 0 0-33.024 20.16L378.88 330.496a27.776 27.776 0 0 1-20.992 15.424l-230.976 34.368a36.224 36.224 0 0 0-28.864 23.488 33.28 33.28 0 0 0 8.192 34.624l169.344 169.088a27.648 27.648 0 0 1 7.744 24.192l-39.232 234.432a33.664 33.664 0 0 0 14.656 33.6c11.2 7.68 26.752 8.576 39.04 1.984l201.28-108.352a28.288 28.288 0 0 1 13.184-3.264z m0 0" fill="#ffffff" p-id="9057"></path></svg>