<?xml version="1.0" standalone="no"?><!DOCTYPE svg PUBLIC "-//W3C//DTD SVG 1.1//EN" "http://www.w3.org/Graphics/SVG/1.1/DTD/svg11.dtd"><svg t="1684548427047" class="icon" viewBox="0 0 1024 1024" version="1.1" xmlns="http://www.w3.org/2000/svg" p-id="6225" xmlns:xlink="http://www.w3.org/1999/xlink" width="200" height="200"><path d="M512 0C229.4528 0 0 229.4528 0 512s229.4528 512 512 512 512-229.4528 512-512S794.5472 0 512 0z m434.2528 474.0864h-132.736c-5.6832-140.3392-43.6224-263.6032-102.4-348.928a433.664 433.664 0 0 1 235.136 348.928zM474.0864 81.536V474.112h-187.7504c7.5776-195.328 87.2448-358.4 187.7504-392.5504z m0 468.3776v392.5504c-100.5056-34.1504-180.1728-197.2224-187.7504-392.5504h187.7504z m75.8272 392.5504V549.888h187.7504c-7.5776 195.328-87.2448 358.4-187.7504 392.5504z m0-468.3776V81.536c100.5056 34.1504 180.1728 197.2224 187.7504 392.5504H549.888z m-238.9248-348.928c-58.7776 85.3248-96.7168 208.5888-102.4 348.928H75.8528c15.1808-151.7056 106.1888-282.5728 235.136-348.928zM77.7472 549.888h132.736c5.6832 140.3392 43.6224 263.6032 102.4 348.928a433.664 433.664 0 0 1-235.136-348.928z m635.264 348.928c58.7776-85.3248 96.7168-208.5888 102.4-348.928h132.736c-15.1808 151.7056-106.1888 282.5728-235.136 348.928z" fill="#000000" p-id="6226"></path></svg>