<?xml version="1.0" standalone="no"?><!DOCTYPE svg PUBLIC "-//W3C//DTD SVG 1.1//EN" "http://www.w3.org/Graphics/SVG/1.1/DTD/svg11.dtd"><svg t="1684546846590" class="icon" viewBox="0 0 1024 1024" version="1.1" xmlns="http://www.w3.org/2000/svg" p-id="3202" xmlns:xlink="http://www.w3.org/1999/xlink" width="200" height="200"><path d="M512 938.666667c235.648 0 426.666667-191.018667 426.666667-426.666667S747.648 85.333333 512 85.333333 85.333333 276.352 85.333333 512s191.018667 426.666667 426.666667 426.666667z m0-85.333334a341.333333 341.333333 0 1 1 0-682.666666 341.333333 341.333333 0 0 1 0 682.666666z m24.192-135.466666l4.224-3.328 170.624-151.68a42.666667 42.666667 0 0 0-52.48-67.114667l-4.266667 3.328L554.666667 587.648V341.333333a42.666667 42.666667 0 0 0-85.333334 0v246.4l-99.541333-88.576a42.666667 42.666667 0 0 0-56.448-0.213333l-3.797333 3.754667a42.666667 42.666667 0 0 0-0.213334 56.448l3.754667 3.84 170.624 151.552a42.666667 42.666667 0 0 0 52.48 3.328z" fill="#1296db" p-id="3203"></path></svg>