<?xml version="1.0" standalone="no"?><!DOCTYPE svg PUBLIC "-//W3C//DTD SVG 1.1//EN" "http://www.w3.org/Graphics/SVG/1.1/DTD/svg11.dtd"><svg t="1692338062080" class="icon" viewBox="0 0 1025 1024" version="1.1" xmlns="http://www.w3.org/2000/svg" p-id="24673" xmlns:xlink="http://www.w3.org/1999/xlink" width="200.1953125" height="200"><path d="M244.121782 0.005398a241.287851 241.287851 0 0 0-242.907233 242.907233 241.287851 241.287851 0 0 0 242.907233 242.907232h242.907233V242.912631a241.287851 241.287851 0 0 0-242.907233-242.907233zM78.674967 242.912631A170.30496 170.30496 0 0 1 244.121782 77.465815 170.30496 170.30496 0 0 1 411.997669 242.912631v166.796299H244.121782A170.30496 170.30496 0 0 1 78.674967 242.912631z m701.732005-242.907233a241.287851 241.287851 0 0 0-242.907232 242.907233v242.907232h242.907232a241.287851 241.287851 0 0 0 242.907233-242.907232 241.287851 241.287851 0 0 0-242.907233-242.907233z m0 410.78312h-165.986609V242.912631a166.7963 166.7963 0 0 1 333.322703 0 170.30496 170.30496 0 0 1-166.7963 167.875887zM244.121782 535.750794a242.907233 242.907233 0 0 0 0 488.243538 241.287851 241.287851 0 0 0 242.907233-242.907233v-242.907232H244.121782z m0 410.783121a166.7963 166.7963 0 0 1 0-333.322703h166.7963v166.7963A170.30496 170.30496 0 0 1 244.121782 946.533915z m536.824984-410.783121h-242.907232v242.907233a242.907233 242.907233 0 1 0 242.907232-242.907233z m0 410.783121a170.30496 170.30496 0 0 1-166.7963-166.7963v-166.526403h166.7963a166.7963 166.7963 0 0 1 0 333.322703z" fill="#cfd2d2" p-id="24674"></path></svg>