<?xml version="1.0" standalone="no"?><!DOCTYPE svg PUBLIC "-//W3C//DTD SVG 1.1//EN" "http://www.w3.org/Graphics/SVG/1.1/DTD/svg11.dtd"><svg t="1692338695270" class="icon" viewBox="0 0 1024 1024" version="1.1" xmlns="http://www.w3.org/2000/svg" p-id="38114" xmlns:xlink="http://www.w3.org/1999/xlink" width="200" height="200"><path d="M512 960C265.6 960 64 758.4 64 512S265.6 64 512 64s448 201.6 448 448-201.6 448-448 448z m0-832C300.8 128 128 300.8 128 512s172.8 384 384 384 384-172.8 384-384S723.2 128 512 128z" fill="#cfd2d2" p-id="38115"></path><path d="M329.6 726.4c-9.6 0-16-3.2-22.4-9.6-12.8-12.8-12.8-32 0-44.8L672 307.2c12.8-12.8 32-12.8 44.8 0s12.8 32 0 44.8L355.2 716.8c-6.4 6.4-16 9.6-25.6 9.6z" fill="#cfd2d2" p-id="38116"></path><path d="M694.4 726.4c-9.6 0-16-3.2-22.4-9.6L307.2 355.2c-12.8-12.8-12.8-32 0-44.8s32-12.8 44.8 0L716.8 672c12.8 12.8 12.8 32 0 44.8-6.4 6.4-16 9.6-22.4 9.6z" fill="#cfd2d2" p-id="38117"></path></svg>