<?xml version="1.0" standalone="no"?><!DOCTYPE svg PUBLIC "-//W3C//DTD SVG 1.1//EN" "http://www.w3.org/Graphics/SVG/1.1/DTD/svg11.dtd"><svg t="1692338433753" class="icon" viewBox="0 0 1024 1024" version="1.1" xmlns="http://www.w3.org/2000/svg" p-id="37081" xmlns:xlink="http://www.w3.org/1999/xlink" width="200" height="200"><path d="M316.21 506.38v177.67c-2 1.53-3.58 3.58-3.58 6.13h-25.52l-0.51 0.51v48.5a0.5 0.5 0 0 0 0.51 0.51h449.27l0.51-0.51-0.51-49h-25.53c0-2.55-1.53-4.09-3.57-6.13V506.38zM499 705h-83.24V544.67H499z m112.83 0H529.1V544.67h83.22c-0.51 0-0.51 160.33-0.51 160.33zM231 335.35a0.5 0.5 0 0 0-0.51 0.51c0 8.17 4.08 15.32 11.23 22a12.67 12.67 0 0 0-0.51 4.08c0 20.93 24.51 97 59.22 107.21h423.7c35.23-10.72 59.22-86.79 59.22-107.21a9.94 9.94 0 0 0-0.51-4.08c6.64-6.64 10.72-14.3 10.72-22a0.5 0.5 0 0 0-0.51-0.51h-1c-27.06 22.47-59.22 32.17-86.28 32.17-20.93 0-38.8-5.62-49.52-15.83V292c0-4.09-5.11-7.66-11.75-7.66s-11.74 3.57-11.74 7.66v5.1h-241.5V292c0-4.09-5.11-7.66-11.74-7.66s-11.75 3.57-11.75 7.66v59.73c-10.72 10.21-28.59 15.83-49.52 15.83-27.06 0-59.22-9.7-86.28-32.17-0.51-0.04-0.97-0.55-0.97-0.04zM172 212a40 40 0 0 1 40-40h100v-60H152a40 40 0 0 0-40 40v160h60zM872 112H712v60h100a40 40 0 0 1 40 40v100h60V152a40 40 0 0 0-40-40zM852 812a40 40 0 0 1-40 40H712v60h160a40 40 0 0 0 40-40V712h-60zM172 812V712h-60v160a40 40 0 0 0 40 40h160v-60H212a40 40 0 0 1-40-40z" fill="#cfd2d2" p-id="37082"></path></svg>