<?xml version="1.0" standalone="no"?><!DOCTYPE svg PUBLIC "-//W3C//DTD SVG 1.1//EN" "http://www.w3.org/Graphics/SVG/1.1/DTD/svg11.dtd"><svg t="1692337569976" class="icon" viewBox="0 0 1024 1024" version="1.1" xmlns="http://www.w3.org/2000/svg" p-id="12137" xmlns:xlink="http://www.w3.org/1999/xlink" width="200" height="200"><path d="M491.880777 970.394105c-237.529835 0-430.759721-193.240119-430.759721-430.759721 0-237.529835 193.229886-430.769954 430.759721-430.769954s430.759721 193.240119 430.759721 430.769954C922.640498 777.153986 729.410612 970.394105 491.880777 970.394105zM491.880777 169.213913c-204.250894 0-370.410238 166.168554-370.410238 370.419448 0 204.240661 166.159344 370.410238 370.410238 370.410238S862.289991 743.875045 862.289991 539.634384C862.289991 335.38349 696.131671 169.213913 491.880777 169.213913z" fill="#cfd2d2" p-id="12138"></path><path d="M491.880777 724.720799c-102.056374 0-185.096648-83.030042-185.096648-185.087439s83.040275-185.087439 185.096648-185.087439 185.077206 83.030042 185.077206 185.087439S593.937151 724.720799 491.880777 724.720799zM491.880777 414.897452c-68.777433 0-124.747165 55.959499-124.747165 124.736932s55.968709 124.736932 124.747165 124.736932S616.607476 608.411817 616.607476 539.634384 560.65821 414.897452 491.880777 414.897452z" fill="#cfd2d2" p-id="12139"></path></svg>