<?xml version="1.0" standalone="no"?><!DOCTYPE svg PUBLIC "-//W3C//DTD SVG 1.1//EN" "http://www.w3.org/Graphics/SVG/1.1/DTD/svg11.dtd"><svg t="1692337761462" class="icon" viewBox="0 0 1024 1024" version="1.1" xmlns="http://www.w3.org/2000/svg" p-id="15395" xmlns:xlink="http://www.w3.org/1999/xlink" width="200" height="200"><path d="M93.44 537.6a51.2 51.2 0 0 0 39.168 18.176 48.896 48.896 0 0 0 16.896-2.816 51.2 51.2 0 0 0 33.792-47.872v-215.04a135.168 135.168 0 0 1 13.056-65.536A76.8 76.8 0 0 1 230.4 191.232 144.64 144.64 0 0 1 301.312 179.2h427.52a133.12 133.12 0 0 1 66.048 13.056 76.8 76.8 0 0 1 32.768 32.768 144.896 144.896 0 0 1 13.056 72.704 51.2 51.2 0 1 0 102.4 0 240.64 240.64 0 0 0-25.6-120.576A179.2 179.2 0 0 0 842.752 102.4a239.872 239.872 0 0 0-120.576-25.6H292.352a230.4 230.4 0 0 0-111.104 25.6 179.2 179.2 0 0 0-74.496 73.728 237.056 237.056 0 0 0-25.6 120.064V384a51.2 51.2 0 0 0-79.36 28.416A51.2 51.2 0 0 0 15.616 460.8l67.072 67.072a42.752 42.752 0 0 0 10.752 9.728zM1008.64 551.936l-67.072-67.072a49.152 49.152 0 0 0-8.192-6.656 51.2 51.2 0 0 0-38.4-21.76h-3.328a51.2 51.2 0 0 0-51.2 51.2v216.576a131.328 131.328 0 0 1-13.056 65.792 76.8 76.8 0 0 1-32.768 33.024 144.896 144.896 0 0 1-72.704 13.056H295.424A134.656 134.656 0 0 1 230.4 822.528a76.8 76.8 0 0 1-33.024-33.024A142.08 142.08 0 0 1 183.296 716.8a51.2 51.2 0 1 0-102.4 0 239.104 239.104 0 0 0 25.6 121.088 179.2 179.2 0 0 0 74.496 74.496 239.104 239.104 0 0 0 121.088 25.6h429.312a227.584 227.584 0 0 0 111.36-25.6 179.2 179.2 0 0 0 74.752-74.496 241.152 241.152 0 0 0 25.6-120.576v-88.32a51.2 51.2 0 0 0 43.776 8.704 51.2 51.2 0 0 0 36.352-36.352 51.2 51.2 0 0 0-14.592-49.408z" p-id="15396" fill="#cfd2d2"></path><path d="M342.528 506.88A169.472 169.472 0 1 0 512 337.408a169.728 169.728 0 0 0-169.472 169.472z m102.4 0A67.84 67.84 0 1 1 512 574.72a67.84 67.84 0 0 1-67.84-67.84z" p-id="15397" fill="#cfd2d2"></path></svg>