<?xml version="1.0" standalone="no"?><!DOCTYPE svg PUBLIC "-//W3C//DTD SVG 1.1//EN" "http://www.w3.org/Graphics/SVG/1.1/DTD/svg11.dtd"><svg t="1692338185017" class="icon" viewBox="0 0 1024 1024" version="1.1" xmlns="http://www.w3.org/2000/svg" p-id="26228" xmlns:xlink="http://www.w3.org/1999/xlink" width="200" height="200"><path d="M557.850746 183.402985a22.925373 22.925373 0 0 1 11.462687 19.104478v61.134328a22.925373 22.925373 0 0 0 38.208955 19.104478l45.850746-34.38806h22.925373l57.313433 19.104478a22.925373 22.925373 0 0 0 30.567164-30.567165L741.253731 175.761194a22.925373 22.925373 0 0 1 3.820896-22.925373l34.38806-45.850746a22.925373 22.925373 0 0 0-19.104478-38.208956H703.044776a22.925373 22.925373 0 0 1-19.104477-11.462686l-38.208956-45.850746a22.925373 22.925373 0 0 0-42.02985 7.641791L588.41791 72.597015a22.925373 22.925373 0 0 1-15.283582 15.283582l-57.313432 19.104478a22.925373 22.925373 0 0 0-7.641792 45.850746zM489.074627 427.940299l-26.746269 22.925373a15.283582 15.283582 0 0 0 7.641791 22.925373l34.38806 7.641791 11.462687 7.641791 15.283582 30.567164a15.283582 15.283582 0 0 0 26.746268 0l15.283582-30.567164 11.462687-7.641791h34.38806a15.283582 15.283582 0 0 0 7.641791-22.925373l-22.925373-22.925373a15.283582 15.283582 0 0 1-3.820896-11.462687l7.641791-34.38806a15.283582 15.283582 0 0 0-19.104478-15.283582l-30.567164 15.283582h-11.462686l-34.38806-22.925373a15.283582 15.283582 0 0 0-19.104478 15.283582v34.38806a15.283582 15.283582 0 0 1-3.820895 11.462687zM305.671642 282.746269a15.283582 15.283582 0 0 1 3.820895 15.283582l-7.641791 38.208955a15.283582 15.283582 0 0 0 22.925373 19.104478l38.208956-15.283583h15.283582l34.388059 22.925374a15.283582 15.283582 0 0 0 26.746269-15.283582V305.671642a15.283582 15.283582 0 0 1 7.641791-15.283582l30.567164-26.746269a15.283582 15.283582 0 0 0-7.641791-30.567164l-45.850746-7.641791-11.462687-11.462687-15.283582-38.208955a15.283582 15.283582 0 0 0-30.567164-3.820895l-22.925373 34.388059-15.283582 7.641791h-38.208955a15.283582 15.283582 0 0 0-11.462687 26.746269z" p-id="26229" fill="#cfd2d2"></path><path d="M932.298507 466.149254h-7.641791a546.38806 546.38806 0 0 0-156.656716-45.850747h-15.283582l-42.029851 30.567165 38.208955 7.641791 34.38806 11.462686c26.746269 11.462687 26.746269 26.746269 0 38.208955l-53.492537 15.283583a1253.253731 1253.253731 0 0 1-382.089552 7.641791l-91.701493-22.925374c-11.462687-3.820896-22.925373-15.283582-22.925373-22.925373s11.462687-19.104478 22.925373-22.925373l87.880597-22.925373 49.671642-11.462686c19.104478-3.820896 11.462687-15.283582 7.641791-26.746269l-22.925373-7.641791-141.373135 26.746268a366.80597 366.80597 0 0 0-160.477612 61.134329c-26.746269 22.925373-30.567164 45.850746-3.820895 64.955224a183.402985 183.402985 0 0 0 49.671642 30.567164l91.701492 26.746269c11.462687 3.820896 19.104478 7.641791 19.104478 15.283582-7.641791 84.059701-15.283582 171.940299-26.746269 256a72.597015 72.597015 0 0 0 26.746269 72.597015l53.492537 30.567164a573.134328 573.134328 0 0 0 286.567164 42.02985 477.61194 477.61194 0 0 0 202.507463-61.134328 80.238806 80.238806 0 0 0 42.029851-91.701492c-11.462687-53.492537-15.283582-106.985075-22.925373-160.477612s0-57.313433 0-87.880597 3.820896-15.283582 19.104477-19.104478a844.41791 844.41791 0 0 0 122.268657-42.029851c45.850746-22.925373 45.850746-61.134328-3.820896-91.701492z m-202.507462 202.507462c0 3.820896-7.641791 11.462687-11.462687 11.462687l-179.582089 22.925373a852.059701 852.059701 0 0 1-229.253732-19.104477c-15.283582-3.820896-19.104478-11.462687-19.104477-26.746269v-49.671642a1157.731343 1157.731343 0 0 0 439.402985 0v64.955224z" p-id="26230" fill="#cfd2d2"></path></svg>