<?xml version="1.0" encoding="UTF-8"?>
<svg id="uuid-ec83c61a-ff3f-478d-b756-c23dba55e302" xmlns="http://www.w3.org/2000/svg" viewBox="0 0 120 120">
  <path d="m57.47,40c1.61,0,6.56-.77,8.14-2.29,1.55-1.48,2.41-3.54,2.36-5.69.03-2.13-.82-4.18-2.36-5.65-1.49-1.51-3.53-2.35-5.66-2.32-2.09-.03-4.1.8-5.56,2.29-1.54,1.48-2.38,3.54-2.34,5.68,0,2.3.79,4.21,2.36,5.72,1.58,1.5,1.49,2.26,3.05,2.26ZM60,0C26.86,0,0,26.86,0,60s26.86,60,60,60,60-26.86,60-60S93.14,0,60,0Zm0,112c-28.72,0-52-23.28-52-52S31.28,8,60,8s52,23.28,52,52-23.28,52-52,52Zm4.94-34.82l-1.86,1.86,4.97-26.35c.03-.18-.02-.35-.02-.53v-.08c.02-1.07-.4-2.1-1.18-2.84l-.03-.06s-.06-.02-.08-.05c-.46-.43-1.02-.75-1.62-.93-.21-.06-.38-.18-.6-.22-.15-.02-.3.02-.46,0h-.39c-1.52.02-2.93.84-3.69,2.16l-10.78,10.78c-1.62,1.62-1.62,4.25,0,5.88,1.62,1.62,4.25,1.62,5.88,0h0l1.86-1.86-4.96,26.35c-.03.18.02.35.02.54v.08c-.03,1.07.4,2.1,1.18,2.84l.03.05.08.06c.47.42,1.02.73,1.62.92.2.06.37.18.59.22.16.02.31-.02.47,0l.39-.02c1.52,0,2.93-.82,3.69-2.14l10.78-10.78c1.62-1.62,1.62-4.25,0-5.87-1.62-1.62-4.25-1.62-5.87,0h0Z"/>
</svg>