<?xml version="1.0" encoding="UTF-8"?>
<svg id="uuid-3dbc1246-56a3-4abb-aaab-4e560d183d64" data-name="图层 1" xmlns="http://www.w3.org/2000/svg" viewBox="0 0 1246.54 1023.26">
  <path d="m663.74,915.27l56.31,51.7c12.94,12.73,13.11,33.54.38,46.48-12.1,12.3-31.65,13.15-44.77,1.95l-143.33-131.46,135.71-141.29c13.08-12.59,33.88-12.19,46.47.89,11.88,12.34,12.29,31.74.93,44.57l-59.02,61.48h258.36c146.58-.2,265.36-118.99,265.53-265.58-.07-133.8-99.62-246.67-232.35-263.48l-23.34-2.92-4.76-23.04c-27.82-133.03-144.97-228.43-280.88-228.72-158.55.21-286.91,128.9-286.7,287.45,0,3.36.07,6.71.19,10.07l1.33,37.73-37.63-3.89c-124.71-12.98-236.33,77.6-249.31,202.31-.8,7.72-1.21,15.47-1.22,23.23.14,125.19,101.59,226.63,226.77,226.77h79.04c18.15,0,32.86,14.71,32.86,32.86s-14.71,32.86-32.86,32.86h-78.99C130.99,915.13.14,784.27,0,622.81c.17-159.4,127.81-289.39,287.18-292.45C299.38,136.1,466.76-11.5,661.03.71c150.2,9.43,277.83,113.19,317.73,258.3,179.53,35.06,296.63,209.03,261.57,388.55-30.41,155.68-166.93,267.95-325.56,267.71h-251.04,0Zm-360.48-250.32l105.96-275.92h39.37l112.98,275.92h-41.62l-32.2-83.54h-115.43l-30.3,83.59h-38.75v-.05Zm79.65-113.28h93.53l-28.77-76.43c-8.8-23.19-15.36-42.28-19.61-57.23-3.58,17.92-8.55,35.53-14.85,52.73l-30.3,80.88v.05Zm207.83,113.34v-276.02h104.07c18.33,0,32.35.87,41.98,2.66,13.57,2.25,24.93,6.55,34.09,12.9,9.16,6.3,16.53,15.2,22.17,26.62,5.63,11.77,8.5,24.62,8.34,37.68,0,23.45-7.47,43.31-22.42,59.53-14.9,16.28-41.87,24.42-80.88,24.42h-70.85v112.21h-36.5Zm36.5-144.77h71.31c23.6,0,40.34-4.4,50.27-13.21,9.93-8.75,14.85-21.14,14.9-37.06.31-10.57-2.73-20.96-8.7-29.69-5.53-7.97-13.71-13.72-23.09-16.23-6.14-1.64-17.51-2.46-34.09-2.46h-70.59v98.64h0Zm226.88,144.77v-276.02h36.5v276.02h-36.5Z"/>
</svg>