<?xml version="1.0" encoding="UTF-8"?>
<svg id="uuid-47d8e9b3-b933-4a65-8c3b-a1695a1545b9" data-name="图层 1" xmlns="http://www.w3.org/2000/svg" viewBox="0 0 119.46 128">
  <path d="m0,0v128h91.44v-8.54H8.53V8.54h98.13v38.98h8.54V0H0Z"/>
  <path d="m90.2,104.83c-3.14-.02-6.23-.75-9.05-2.14l24.74-31.49c3.22,3.66,5,8.36,5.04,13.23-.09,11.35-9.37,20.48-20.73,20.39,0,0,0,0,0,0Zm-20.7-20.4c.1-11.38,9.4-20.53,20.78-20.43,3.04.03,6.05.73,8.79,2.05l-24.66,31.44c-3.14-3.62-4.88-8.25-4.9-13.05h0Zm20.7-28.96c-16,.16-28.83,13.26-28.67,29.26s13.26,28.83,29.26,28.67c15.88-.16,28.68-13.09,28.67-28.97-.1-16.07-13.19-29.03-29.26-28.96ZM23.98,93.87h17.92v-8.54h-17.92v8.53h0Zm0-20.32h25.3v-8.52h-25.3v8.54-.02Zm0-20.3h37.63v-8.54H23.98s0,8.54,0,8.54Zm0-20.35h57.34v-8.54H23.98s0,8.54,0,8.54Z"/>
</svg>