<?xml version="1.0" encoding="UTF-8"?>
<svg id="uuid-29d31e47-8da9-4f3b-8d2f-4d64199acd89" data-name="图层 1" xmlns="http://www.w3.org/2000/svg" viewBox="0 0 103.38 112">
  <path d="m93.91,112H10.35c-5.17,0-8.61-3.44-8.61-8.61v-.86l6.02-42.22c-4.31-.86-7.76-4.31-7.76-8.61v-17.23c0-5.17,3.45-8.61,8.61-8.61h25.85V8.61c0-5.17,3.45-8.61,8.61-8.61h17.23c5.17,0,8.61,3.44,8.61,8.61v17.23h25.85c5.17,0,8.61,3.44,8.61,8.61v17.23c0,4.31-3.45,7.75-7.76,8.62l6.02,42.22c.86,4.31-2.59,9.48-6.9,9.48,0,0-.84,0-.84,0Zm-15.51-21.54v12.92h15.51l-6.02-43.08H16.37l-6.02,43.08h15.51v-12.92c0-2.38,1.93-4.31,4.31-4.31s4.31,1.93,4.31,4.31v12.92h12.92v-12.92c0-2.38,1.93-4.31,4.31-4.31s4.31,1.93,4.31,4.31v12.92h12.92v-12.92c0-2.38,1.93-4.31,4.31-4.31h.84c2.38,0,4.31,1.93,4.31,4.31ZM9.47,34.46v17.23h86.15v-17.23H9.47ZM43.93,8.61v17.23h17.23V8.61h-17.23Z"/>
</svg>