<?xml version="1.0" encoding="UTF-8"?>
<svg id="uuid-d8cf81fa-a19a-405c-a171-b80a3ec6289a" data-name="图层 1" xmlns="http://www.w3.org/2000/svg" viewBox="0 0 833.1 895.9">
  <path d="m.1,511.8c0,17.73,14.41,32.1,32.19,32.11s32.2-14.37,32.21-32.09h0c0-17.74-14.41-32.12-32.19-32.12S.1,494.06.1,511.79H.1Z"/>
  <path d="m646.1,386.8l-269.5-2.1c-14.3-.1-26,13.8-26,31s11.7,31.3,26,31.4l269.5,2.1c14.3.1,26-13.8,26-31s-11.7-31.3-26-31.4h0Zm0,127l-269.5-2.1c-14.3-.1-26,13.8-26,31s11.7,31.3,26,31.4l269.5,2.1c14.3.2,26-13.8,26-31s-11.7-31.3-26-31.4Z"/>
  <path d="m640.1,0h-319.1c-70.4,0-128,57.6-128,128h-64.9C57.7,128,.1,185.6.1,256v128C0,401.7,14.5,416,32.3,416s32.2-14.4,32.2-32.1v-127.8c0-35.2,28.8-64,64-64h64.5v447.8c0,70.4,57.6,128,128,128h255.1c-.1,35.2-28.8,63.8-64,63.8H128.5c-35.2,0-64-28.8-64-64v-128.1c0-17.7-14.4-32.1-32.2-32.1S0,621.9,0,639.6v128.3c0,70.4,57.6,128,128,128h384.1c70.4,0,128-57.6,128-128h65c70.4,0,128-57.6,128-128V192S640.1,0,640.1,0Zm.1,63.4l127.7,128.3h-63.9c-35.2,0-64-28.8-64-64V63.4h.2,0Zm64,641h-384.1c-35.2,0-64-28.8-64-64V127.4c0-35.2,28.8-64,64-64h254.9v63.7c0,70.4,57.6,128,128,128h65.2v385.3c0,35.2-28.8,64-64,64h0Z"/>
</svg>