<?xml version="1.0" encoding="UTF-8"?>
<svg id="uuid-08510220-fe18-46fc-b5e1-9e5e41b560b2" data-name="图层 1" xmlns="http://www.w3.org/2000/svg" viewBox="0 0 960 960">
  <path d="m480,0C214.9,0,0,214.9,0,480s214.9,480,480,480,480-214.9,480-480C959.65,215.05,744.95.35,480,0Zm416,480c-.08,99.15-35.73,194.99-100.48,270.08L209.92,164.48C383.9,14.97,646.14,34.8,795.66,208.77c64.86,75.47,100.47,171.72,100.34,271.23Zm-832,0c.08-99.15,35.73-194.99,100.48-270.08l585.6,585.6c-173.98,149.51-436.22,129.68-585.74-44.29-64.86-75.47-100.47-171.72-100.34-271.23Z"/>
</svg>