<?xml version="1.0" encoding="UTF-8"?>
<svg id="uuid-699656ff-c86d-42fd-b81b-e2b352b125e7" data-name="图层 1" xmlns="http://www.w3.org/2000/svg" viewBox="0 0 880 880">
  <path d="m165.25,624v-366.5h271.74v61.98h-197.76v81.28h184v61.76h-184v99.71h204.77v61.76H165.25Zm550.5,0h-70.24v-135.49c0-28.67-1.5-47.23-4.48-55.65-2.66-7.94-7.79-14.82-14.66-19.62-7.21-4.81-15.73-7.26-24.38-7.01-12.16,0-23.04,3.33-32.74,10.02-9.66,6.66-16.32,15.49-19.87,26.5-3.58,11.01-5.38,31.36-5.38,60.99v120.26h-70.24v-265.5h65.25v39.01c23.17-30.02,52.32-44.99,87.49-44.99,15.52,0,29.66,2.78,42.5,8.35,12.83,5.6,22.56,12.7,29.12,21.38,6.59,8.67,11.2,18.5,13.76,29.5s3.87,26.75,3.87,47.26v164.99Z"/>
  <path d="m96,64c-17.67,0-32,14.33-32,32v688c0,17.67,14.33,32,32,32h688c17.67,0,32-14.33,32-32V96c0-17.67-14.33-32-32-32H96Zm0-64h688c53.02,0,96,42.98,96,96v688c0,53.02-42.98,96-96,96H96c-53.02,0-96-42.98-96-96V96C0,42.98,42.98,0,96,0Z"/>
</svg>