<?xml version="1.0" encoding="UTF-8"?>
<svg id="uuid-97e5d2f7-7d35-4909-98fa-a7e7059dfd38" data-name="图层 1" xmlns="http://www.w3.org/2000/svg" viewBox="0 0 853.3 1016.41">
  <path d="m728.8,1016.4c-19.6,0-39.2-4.5-57.1-13.5l-226.3-113.7c-11.7-5.9-25.8-5.9-37.5,0l-226.3,113.7c-37.2,18.7-81.3,17.9-118.1-1.9-35.3-19-58.1-52.3-62.6-91.3C.3,904.8,0,899.8,0,894.7V129.4C-.1,58,58,0,129.3,0h594.6c71.3,0,129.4,58,129.4,129.4v765.3c0,5.1-.3,10.1-.9,15-4.5,39-27.4,72.2-62.6,91.3-19,10.2-40,15.4-61,15.4h0Zm-302.2-216.9c19.6,0,39.2,4.5,57.1,13.5l226.3,113.7c12.3,6.2,27,5.9,39.3-.8,6.1-3.3,16.7-11.1,18.4-26,.2-1.7.3-3.4.3-5.2V129.4c0-24.3-19.8-44-44-44H129.3c-24.3,0-44,19.8-44,44v765.3c0,1.8.1,3.5.3,5.2,1.7,15,12.3,22.8,18.4,26,12.3,6.7,27,6.9,39.3.8l226.3-113.7c17.8-9.1,37.4-13.5,57-13.5Z"/>
  <path d="m512.4,590.6c-6.7,0-13.5-1.3-20-4.1l-65.8-27.6-65.7,27.7c-16.8,7-35.5,4.9-50.2-5.8s-22.5-27.9-20.9-45.9l6-71-46.6-54c-11.9-13.7-15.6-32.2-10-49.4,5.6-17.3,19.5-30.1,37.1-34.2l69.5-16.2,36.9-61c9.4-15.5,25.9-24.8,44-24.8s34.6,9.3,44,24.8l36.9,61,69.5,16.2c17.7,4.1,31.6,16.9,37.2,34.2,5.6,17.2,1.8,35.8-10,49.5l-46.6,54,6,71c1.6,18-6.3,35.2-20.9,45.9-9.3,6.4-19.8,9.7-30.4,9.7h0Zm-99-37.3s.1,0,0,0Zm65.1-11.3q0,.1,0,0Zm-51.9-71.3c6.8,0,13.7,1.4,20,4l27.1,11.4-2.5-29.4c-1.2-13.8,3.4-27.6,12.4-38.1l19.2-22.2-28.7-6.7c-13.4-3.2-25.1-11.7-32.2-23.3l-15.3-25.3-15.2,25.2c-7.2,11.8-18.9,20.3-32.1,23.4l-28.9,6.7,19.3,22.3c9,10.3,13.5,24.2,12.3,37.9l-2.5,29.4,27.2-11.4c6.3-2.6,13.1-3.9,19.9-3.9h0Zm-121.6,3.9s.1.1.1.2l-.1-.2Zm243.3-.2l-.1.2s0-.1.1-.2Zm-33.4-152.2h.2-.2Z"/>
</svg>