<?xml version="1.0" encoding="UTF-8"?>
<svg id="uuid-07c12312-053a-429e-8053-cae7c3eb039c" data-name="图层 1" xmlns="http://www.w3.org/2000/svg" viewBox="0 0 835.4 801.84">
  <path d="m772.67,250.9l-187.3-27.2c-7.8-1.1-14.6-6-18.1-13.1l-83.7-169.7C471.07,15.6,445.87,0,417.77,0s-53.4,15.7-65.8,40.9l-83.7,169.7c-3.5,7.1-10.3,12-18.1,13.1l-187.3,27.2c-15.9,2.3-30.8,9.9-42,21.4l-2.7,2.9-.3.3c-25.4,29.3-23.5,73.5,4.3,100.6l135.5,132.1c5.7,5.5,8.2,13.5,6.9,21.2l-32,186.6c-2.7,15.8-.1,32.4,7.4,46.6l1.8,3.3.2.3c13.7,22.8,38,35.6,63,35.6,11.5,0,23.2-2.7,34.1-8.4l167.5-88.1c7-3.7,15.3-3.7,22.3,0l167.5,88.1c14.2,7.5,30.8,10.1,46.6,7.4l3.6-.7.3-.1c38-8.7,62.6-45.6,56-84l-32-186.5c-1.3-7.8,1.2-15.7,6.9-21.2l135.5-132.1c11.5-11.2,19.1-26.1,21.4-42l.4-3.6v-.4c3.7-38.9-23.8-73.7-62.4-79.3ZM246.77,510c2.2-12.6-2-25.5-11.2-34.4l-135.5-132c-7.1-6.9-3.2-19,6.6-20.5l187.3-27.2c12.7-1.8,23.6-9.8,29.3-21.3l83.7-169.6c4.4-8.9,17.1-8.9,21.5,0l83.7,169.6c5.7,11.5,16.6,19.4,29.3,21.3l187.2,27.2c9.8,1.4,13.8,13.5,6.6,20.5l-135.5,132c-9.2,9-13.3,21.8-11.2,34.4l32,186.4c1.7,9.8-8.6,17.3-17.4,12.6l-167.4-88c-11.3-6-24.9-6-36.2,0l-167.4,88c-8.8,4.6-19.1-2.8-17.4-12.6l32-186.4h0Z" style="fill: #d81e06;"/>
  <path d="m537.87,454.7c-3.6-13.5-14.3-24.1-27.9-27.6-13.6-3.5-28,.6-37.7,10.7-12,12.2-28.7,19.1-45.8,19.1h-.2c-17,0-33.6-6.9-45.6-19-15.2-15.2-39.8-15.2-55,0s-15.2,39.8,0,55c26.5,26.6,63.1,41.8,100.6,41.8h.4c37.7,0,74.5-15.4,101.1-42.2,9.8-9.8,13.7-24.3,10.1-37.8h0Z" style="fill: #d81e06;"/>
</svg>