<?xml version="1.0" encoding="UTF-8"?>
<svg id="uuid-e87c89c2-2b26-4990-83a1-e5a0569f001b" data-name="图层 1" xmlns="http://www.w3.org/2000/svg" viewBox="0 0 98.46 106.04">
  <path d="m64.38,0c4.18,0,7.57,3.39,7.57,7.57v26.99h18.93c4.18,0,7.57,3.39,7.57,7.57v56.33c0,4.18-3.39,7.57-7.57,7.57H7.57c-4.18,0-7.57-3.39-7.57-7.57v-56.34c0-4.18,3.39-7.57,7.57-7.57h18.94V7.57C26.51,3.39,29.9,0,34.08,0h30.3Zm25.56,72.43H8.52v25.09h12.54v-15.15c0-2.35,1.91-4.26,4.26-4.26s4.26,1.91,4.26,4.26v15.15h15.86v-15.15c0-2.35,1.91-4.26,4.26-4.26s4.26,1.91,4.26,4.26v15.15h15.86v-15.15c0-2.35,1.91-4.26,4.26-4.26s4.26,1.91,4.26,4.26v15.15h11.6v-25.09h0s0,0,0,0ZM63.43,8.52h-28.4v34.56H8.52v20.83h81.42v-20.83h-26.51V8.52Z"/>
</svg>