<svg t="1684897888514" viewBox="0 0 1024 1024" version="1.1" xmlns="http://www.w3.org/2000/svg"
     p-id="15726" width="128" height="128">
    <path d="M633.99 89.24c33.47 0 60.59 27.13 60.59 60.59v215.9h151.48c33.47 0 60.6 27.13 60.6 60.59v450.64c0 33.47-27.13 60.59-60.6 60.59H179.53c-33.47 0-60.59-27.13-60.59-60.59v-450.7c0-33.47 27.13-60.59 60.59-60.59h151.48V149.84c0-33.47 27.13-60.59 60.59-60.59h242.39z m204.5 579.46H187.11v200.69h100.34V748.2c0-18.82 15.26-34.09 34.09-34.09 18.82 0 34.08 15.26 34.08 34.09v121.19H482.5V748.2c0-18.82 15.26-34.09 34.09-34.09 18.82 0 34.09 15.26 34.09 34.09v121.19h126.88V748.2c0-18.82 15.26-34.09 34.08-34.09 18.83 0 34.09 15.26 34.09 34.09v121.19h92.77V668.64v0.06zM626.41 157.41H399.19V433.9H187.11v166.63h651.38V433.9H626.41V157.41z m0 0"
          p-id="15727"></path>
</svg>