<?xml version="1.0" encoding="UTF-8"?>
<svg id="uuid-d88a993f-772c-47f7-88b9-2e431d3b6087" data-name="图层 1" xmlns="http://www.w3.org/2000/svg" viewBox="0 0 1024 998.71">
  <path d="m512,0C229.25,0,0,229.22,0,512c0,226.21,146.72,418.14,350.14,485.82,25.6,4.74,35.01-11.1,35.01-24.64,0-12.19-.48-52.54-.7-95.33-142.46,30.98-172.51-60.42-172.51-60.42-23.3-59.17-56.83-74.91-56.83-74.91-46.46-31.78,3.52-31.14,3.52-31.14,51.39,3.62,78.46,52.77,78.46,52.77,45.66,78.27,119.78,55.65,148.99,42.56,4.58-33.09,17.86-55.68,32.51-68.48-113.73-12.93-233.28-56.86-233.28-253.02,0-55.9,20-101.57,52.77-137.44-5.31-12.9-22.85-64.96,4.96-135.49,0,0,43.01-13.76,140.83,52.48,40.83-11.36,84.64-17.02,128.16-17.25,43.49.19,87.33,5.89,128.26,17.25,97.73-66.24,140.64-52.48,140.64-52.48,27.87,70.53,10.34,122.59,5.02,135.49,32.83,35.84,52.7,81.54,52.7,137.44,0,196.64-119.78,239.94-233.79,252.64,18.37,15.9,34.72,47.04,34.72,94.82,0,68.51-.61,123.65-.61,140.51,0,13.63,9.22,29.6,35.17,24.58,203.33-67.78,349.86-259.62,349.86-485.76C1024,229.22,794.75,0,512,0h0Z"/>
</svg>