<svg t="1683129100927" viewBox="0 0 1024 1024" version="1.1" xmlns="http://www.w3.org/2000/svg" p-id="3671">
    <path d="M798.5152 707.9936v-77.0048c0-12.288-9.8304-22.7328-22.1184-22.7328-13.9264 0-24.1664 11.4688-24.1664 25.3952V739.328c0 8.192 6.7584 14.9504 14.9504 14.9504h83.5584c13.1072 0 24.1664-10.6496 23.7568-23.7568-0.4096-13.7216-11.6736-22.528-25.3952-22.528h-50.5856z m-502.3744-119.1936c-16.384 0-29.2864 13.9264-27.8528 30.5152 1.2288 14.5408 13.9264 25.3952 28.672 25.3952h142.9504c14.5408 0 27.2384-10.8544 28.672-25.3952 1.4336-16.5888-11.4688-30.5152-27.8528-30.5152h-144.5888z m0-231.6288h309.4528c15.7696 0 28.4672-12.9024 28.0576-28.8768-0.4096-14.9504-13.7216-27.2384-28.672-27.2384H296.7552c-14.7456 0-27.8528 11.8784-28.672 26.624-0.4096 7.9872 2.6624 15.5648 8.192 21.2992 5.3248 5.12 12.288 8.192 19.8656 8.192z m241.4592 113.0496c0-15.36-12.4928-28.0576-28.0576-28.0576H296.7552c-14.5408 0-27.2384 10.8544-28.4672 25.3952-1.4336 16.5888 11.6736 30.5152 28.0576 30.5152h213.4016c15.36 0.4096 27.8528-12.288 27.8528-27.8528z m0 0"
          p-id="3672"></path>
    <path d="M568.5248 846.4384H248.0128c-24.1664 0-44.032-19.8656-44.032-44.032V212.1728c0-24.1664 19.8656-44.032 44.032-44.032h461.0048c24.1664 0 44.032 19.8656 44.032 44.032v223.0272c0 15.5648 11.6736 28.8768 27.0336 30.3104 17.6128 1.6384 32.3584-12.288 32.3584-29.696V212.1728c0-57.1392-46.4896-103.6288-103.424-103.6288H248.0128c-55.296 0-100.5568 43.008-103.424 98.0992v601.4976c2.8672 54.8864 48.3328 97.8944 103.424 97.8944h319.8976c14.9504 0 28.0576-10.6496 30.1056-25.3952 2.6624-18.432-11.6736-34.2016-29.4912-34.2016z m0 0"
          p-id="3673"></path>
    <path d="M782.7456 502.1696c-111.8208 0-202.752 91.3408-201.9328 203.5712 0.8192 109.7728 90.5216 199.4752 200.4992 200.4992 112.0256 0.8192 203.5712-90.112 203.5712-201.9328-0.2048-111.616-90.7264-202.1376-202.1376-202.1376z m146.432 201.9328c0 81.5104-66.7648 147.456-148.48 146.432-78.848-1.024-143.1552-65.3312-144.384-143.9744-1.2288-81.92 64.9216-148.8896 146.432-148.8896 80.6912 0 146.432 65.536 146.432 146.432z m0 0"
          p-id="3674"></path>
</svg>