<?xml version="1.0" encoding="UTF-8"?>
<svg id="uuid-fdcdaf9f-d0cd-4777-adda-00afd7003560" data-name="图层 1" xmlns="http://www.w3.org/2000/svg" viewBox="0 0 840.29 797.7">
  <path d="m653.93,599.45v-77c0-12.29-9.83-22.73-22.12-22.73-13.93,0-24.17,11.47-24.17,25.4v105.68c0,8.19,6.76,14.95,14.95,14.95h83.56c13.11,0,24.17-10.65,23.76-23.76-.41-13.72-11.67-22.53-25.4-22.53h-50.59,0Zm-502.37-119.19c-16.38,0-29.29,13.93-27.85,30.52,1.23,14.54,13.93,25.4,28.67,25.4h142.95c14.54,0,27.24-10.85,28.67-25.4,1.43-16.59-11.47-30.52-27.85-30.52h-144.59,0Zm0-231.63h309.45c15.77,0,28.47-12.9,28.06-28.88-.41-14.95-13.72-27.24-28.67-27.24H152.17c-14.75,0-27.85,11.88-28.67,26.62-.41,7.99,2.66,15.56,8.19,21.3,5.32,5.12,12.29,8.19,19.87,8.19h0Zm241.46,113.05c0-15.36-12.49-28.06-28.06-28.06h-212.79c-14.54,0-27.24,10.85-28.47,25.4-1.43,16.59,11.67,30.52,28.06,30.52h213.4c15.36.41,27.85-12.29,27.85-27.85Z"/>
  <path d="m423.94,737.89H103.42c-24.17,0-44.03-19.87-44.03-44.03V103.63c0-24.17,19.87-44.03,44.03-44.03h461c24.17,0,44.03,19.87,44.03,44.03v223.03c0,15.56,11.67,28.88,27.03,30.31,17.61,1.64,32.36-12.29,32.36-29.7V103.63c0-57.14-46.49-103.63-103.42-103.63H103.42C48.13,0,2.87,43.01,0,98.1v601.5c2.87,54.89,48.33,97.89,103.42,97.89h319.9c14.95,0,28.06-10.65,30.11-25.4,2.66-18.43-11.67-34.2-29.49-34.2Z"/>
  <path d="m638.16,393.63c-111.82,0-202.75,91.34-201.93,203.57.82,109.77,90.52,199.48,200.5,200.5,112.03.82,203.57-90.11,203.57-201.93-.2-111.62-90.73-202.14-202.14-202.14Zm146.43,201.93c0,81.51-66.76,147.46-148.48,146.43-78.85-1.02-143.16-65.33-144.38-143.97-1.23-81.92,64.92-148.89,146.43-148.89s146.43,65.54,146.43,146.43h0Z"/>
</svg>