<?xml version="1.0" encoding="UTF-8"?>
<svg id="uuid-78926db3-f76b-4dea-97f9-5afcfa709fcb" data-name="图层 1" xmlns="http://www.w3.org/2000/svg" viewBox="0 0 708.92 708.92">
  <path d="m630.15,0C673.66,0,708.92,35.27,708.92,78.77v551.38c0,43.5-35.27,78.77-78.77,78.77H78.77c-43.5,0-78.77-35.27-78.77-78.77V78.77C0,35.27,35.27,0,78.77,0h551.38Zm0,39.38H78.77c-19.97,0-36.77,14.95-39.11,34.78l-.28,4.61v551.38c0,19.97,14.95,36.77,34.78,39.11l4.61.28h551.38c19.97,0,36.77-14.95,39.11-34.78l.28-4.61V78.77c0-19.97-14.95-36.77-34.78-39.11l-4.61-.28Zm-354.46,39.38c10.88-.02,19.71,8.78,19.73,19.66.02,9.54-6.8,17.71-16.18,19.41l-3.54.32h-59.08v472.62h59.08c10.88-.02,19.71,8.78,19.73,19.66.02,9.54-6.8,17.71-16.18,19.41l-3.54.32H118.15c-10.88.02-19.71-8.78-19.73-19.66-.02-9.54,6.8-17.71,16.18-19.41l3.54-.32h59.08V118.15h-59.08c-10.88.02-19.71-8.78-19.73-19.66-.02-9.54,6.8-17.71,16.18-19.41l3.54-.32h157.54Z"/>
</svg>