<?xml version="1.0" encoding="UTF-8"?>
<svg id="_图层_1" data-name="图层 1" xmlns="http://www.w3.org/2000/svg" viewBox="0 0 181.71 181.82">
  <path d="M90.88,181.82h-.7c-12.27-.1-24.14-2.58-35.31-7.4-10.78-4.65-20.45-11.29-28.73-19.69-8.28-8.4-14.77-18.16-19.26-29.02C2.23,114.45-.09,102.54,0,90.27h.63l-.63-.04c.21-14.53,3.77-28.38,10.53-41.13,6.45-12.17,15.76-22.89,26.91-31.02l8.52,11.72c-19.63,14.28-31.09,36.35-31.48,60.57-.16,20.41,7.66,39.65,21.97,54.18,14.32,14.53,33.44,22.62,53.85,22.77h.59c20.18,0,39.2-7.79,53.59-21.97,14.53-14.32,22.62-33.44,22.77-53.85s-7.66-39.65-21.97-54.18c-12.62-12.79-28.95-20.61-46.6-22.38l-.57,76.04-14.47-.12.68-90.86,7.25.06c12.27.1,24.14,2.58,35.31,7.4,10.78,4.65,20.45,11.29,28.73,19.69s14.77,18.16,19.26,29.02c4.63,11.29,6.93,23.2,6.84,35.47s-2.58,24.14-7.4,35.31c-4.65,10.78-11.29,20.45-19.69,28.73-8.4,8.28-18.16,14.77-29.02,19.26-11.02,4.57-22.7,6.88-34.71,6.88h0Z"/>
  <path d="M90.69,105.86l-30.04-30.39,10.31-10.18,19.84,20.1,19.12-18.89,10.18,10.29-29.41,29.06Z"/>
</svg>