<?xml version="1.0" encoding="UTF-8"?>
<svg id="_图层_1" data-name="图层 1" xmlns="http://www.w3.org/2000/svg" viewBox="0 0 169.23 164.85">
  <path d="M14,99.54v42.23c0,4.93,3.99,8.92,8.92,8.92.05,0,.1,0,.16,0h123.08c4.93,0,8.92-4,8.92-8.92h0v-41.54h14.15v41.54c0,12.75-10.33,23.08-23.08,23.08H23.08c-12.75,0-23.08-10.33-23.08-23.08h0v-42.23h14Z"/>
  <path d="M80.85,135.46l-34.69-39.69c-1.78-2.05-1.57-5.16.48-6.95.91-.79,2.08-1.22,3.29-1.21h68.69c2.68-.44,5.22,1.37,5.66,4.05.25,1.48-.2,2.99-1.2,4.1l-34.38,39.69c-1.64,2.17-4.73,2.59-6.9.95-.36-.27-.68-.59-.95-.95h0Z"/>
  <path d="M76.92,0h15.38v112.38h-15.38V0Z"/>
</svg>