<?xml version="1.0" encoding="UTF-8"?>
<svg id="uuid-2fb2803f-bc9c-4af5-a11d-79a0840947ed" xmlns="http://www.w3.org/2000/svg" viewBox="0 0 110.27 110.26">
  <path d="m88.37,20.38h0l-2.26-2c2.33,9.35,2.2,19.14-.38,28.43-2.57,9.29-7.55,17.74-14.42,24.5-6.76,6.87-15.21,11.85-24.5,14.43-9.28,2.59-19.08,2.72-28.43.38,5.69,6.44,13,11.23,21.18,13.88,8.22,2.66,16.64,3.02,25.26,1.06,8.38-1.83,16.11-5.89,22.38-11.75,6.28-5.86,10.82-13.34,13.12-21.62,2.45-8.22,2.62-16.95.5-25.26-2.14-8.32-6.43-15.93-12.44-22.06h-.01Zm-22.74,45.26h0c9-9.34,13.68-20.14,14.06-32.38.38-12.26-3.6-23.34-11.94-33.26,13.58,3.58,24.27,10.78,32.06,21.62,7.79,10.84,11.23,23.26,10.31,37.26-1.32,14-6.7,25.7-16.13,35.11-9.41,9.42-21.12,14.79-35.12,16.13-14,.91-26.42-2.52-37.25-10.31C10.79,92.02,3.58,81.33,0,67.75c9.91,8.34,21,12.32,33.25,11.94,12.26-.38,23.05-5.06,32.38-14.06h0Z"/>
</svg>