<?xml version="1.0" encoding="UTF-8"?>
<svg id="uuid-23f43aea-2ddd-40e3-a078-db4b1452e01e" xmlns="http://www.w3.org/2000/svg" viewBox="0 0 102.4 103.73">
  <path d="m57.6,82.1V12.8h38.4c3.53,0,6.4-2.87,6.4-6.4,0-3.53-2.87-6.4-6.4-6.4H6.4C2.86,0,0,2.87,0,6.4c0,3.53,2.87,6.4,6.4,6.4h38.4v68.84l-16-16c-2.5-2.5-6.55-2.5-9.05,0-2.5,2.5-2.5,6.55,0,9.05l27.15,27.15c2.5,2.5,6.55,2.5,9.05,0h0s27.15-27.15,27.15-27.15c2.5-2.5,2.5-6.55,0-9.05-2.5-2.5-6.55-2.5-9.05,0l-16.45,16.45ZM12.8,38.4h19.2c3.53,0,6.4-2.87,6.4-6.4,0-3.53-2.86-6.4-6.4-6.4H12.8c-3.53,0-6.4,2.87-6.4,6.4,0,3.53,2.86,6.4,6.4,6.4Zm57.6,0h19.2c3.53,0,6.4-2.87,6.4-6.4,0-3.53-2.86-6.4-6.4-6.4h-19.2c-3.53,0-6.4,2.87-6.4,6.4,0,3.53,2.86,6.4,6.4,6.4Z"/>
</svg>