<?xml version="1.0" encoding="UTF-8"?>
<svg id="uuid-e2f4786a-8729-417b-9ff8-37065a20484d" xmlns="http://www.w3.org/2000/svg" viewBox="0 0 102.4 103.73">
  <path d="m57.6,21.63v69.3h38.4c3.53,0,6.4,2.87,6.4,6.4s-2.87,6.4-6.4,6.4H6.4c-3.53,0-6.4-2.87-6.4-6.4s2.87-6.4,6.4-6.4h38.4V22.08l-16,16c-2.5,2.5-6.55,2.5-9.05,0s-2.5-6.55,0-9.05L46.9,1.88c2.5-2.5,6.55-2.5,9.05,0,0,0,0,0,0,0l27.15,27.15c2.5,2.5,2.5,6.55,0,9.05-2.5,2.5-6.55,2.5-9.05,0h0l-16.45-16.45ZM12.8,65.33h19.2c3.53,0,6.4,2.87,6.4,6.4s-2.87,6.4-6.4,6.4H12.8c-3.53,0-6.4-2.87-6.4-6.4s2.87-6.4,6.4-6.4Zm57.6,0h19.2c3.53,0,6.4,2.87,6.4,6.4s-2.87,6.4-6.4,6.4h-19.2c-3.53,0-6.4-2.87-6.4-6.4s2.87-6.4,6.4-6.4Z"/>
</svg>