<svg t="1684324200951" viewBox="0 0 1025 1024" version="1.1" xmlns="http://www.w3.org/2000/svg"
     p-id="5864">
    <path d="M698.879266 777.973c-56.825 40.33-123.34 60.55-191.357 59.625-8.99-0.095-17.93-0.575-26.767-1.35-3.597-0.345-7.19-0.95-10.84-1.395-6.94-0.945-13.88-1.895-20.622-3.22-4.195-0.805-8.292-1.875-12.385-2.845-6.642-1.575-13.232-3.175-19.727-5.125-3.095-0.97-6.14-2.095-9.237-3.145-7.44-2.52-14.882-5.135-22.122-8.21-1.647-0.675-3.245-1.445-4.845-2.2-8.487-3.77-16.827-7.71-24.92-12.16-0.397-0.195-0.698-0.37-1.098-0.57-27.367-15.21-52.385-34.205-74.357-56.405-0.348-0.355-0.7-0.75-1.048-1.15-6.842-6.915-13.332-14.18-19.525-21.725-1.298-1.62-2.547-3.34-3.845-4.985-44.697-56.61-71.662-128.245-71.662-206.162l75.805 0c1.95 0 3.845-1.047 4.848-2.895 0.997-1.827 0.85-3.997-0.253-5.62l-127.39-193.477c-0.997-1.5-2.688-2.5-4.61-2.5-1.895 0-3.592 1-4.59 2.5L0.936266 498.409c-1.075 1.647-1.25 3.795-0.25 5.645 0.997 1.845 2.897 2.895 4.845 2.895l75.807 0c0 91.605 28.212 176.525 76.117 246.734 0.6 0.97 0.997 2.02 1.648 2.995 4.992 7.195 10.485 13.805 15.83 20.6 1.947 2.57 3.845 5.21 5.892 7.74 7.84 9.635 16.18 18.675 24.72 27.54 0.847 0.87 1.597 1.745 2.395 2.52 28.767 29.16 61.277 53.73 96.682 73.35 0.9 0.585 1.797 1.13 2.795 1.655 10.188 5.545 20.675 10.56 31.312 15.3 2.645 1.15 5.192 2.425 7.887 3.57 9.09 3.8 18.427 7.145 27.817 10.335 4.443 1.53 8.84 3.08 13.335 4.475 8.237 2.475 16.63 4.515 25.065 6.57 5.645 1.325 11.19 2.745 16.932 3.845 2.342 0.495 4.59 1.22 6.937 1.595 7.992 1.43 15.982 2.225 23.972 3.22 2.895 0.325 5.742 0.82 8.587 1.15 14.385 1.42 28.665 2.375 42.947 2.375 87.447 0 172.737-27.075 245.902-78.98 23.32-16.58 29.01-49.105 12.675-72.755C754.419266 767.113 722.199266 761.393 698.879266 777.973M941.484266 506.951c-0.045-91.335-28.065-176.075-75.755-246.137-0.705-1.2-1.195-2.422-1.95-3.52-5.945-8.565-12.39-16.555-18.825-24.57-0.75-0.975-1.45-1.997-2.245-2.945-43.65-53.605-98.435-95.027-160.555-122.095-1.7-0.75-3.4-1.597-5.1-2.347-9.935-4.117-20.065-7.762-30.255-11.235-3.695-1.223-7.345-2.572-11.09-3.695-8.885-2.722-17.92-4.942-27.015-7.065-5.04-1.175-10.04-2.472-15.125-3.472-2.555-0.5-4.895-1.247-7.395-1.695-6.79-1.202-13.635-1.728-20.425-2.6-4.7-0.597-9.345-1.347-14.09-1.847-11.43-1.072-22.77-1.522-34.105-1.722-2.045 0-4.095-0.325-6.142-0.325-0.348 0-0.7 0.1-1.095 0.125-87.292 0.075-172.437 26.765-245.499 78.6-23.37 16.527-29.062 49.11-12.73 72.755 16.327 23.645 48.587 29.39 71.91 12.81 56.43-40.025 122.297-60.275 189.812-59.672 9.74 0.072 19.28 0.548 28.715 1.445 2.95 0.348 5.795 0.775 8.69 1.15 7.795 0.95 15.485 2.072 23.07 3.595 3.35 0.647 6.69 1.525 9.935 2.272 7.445 1.695 14.895 3.52 22.185 5.742 2.29 0.747 4.54 1.572 6.83 2.345 8.34 2.75 16.485 5.717 24.52 9.09 0.81 0.348 1.655 0.772 2.45 1.097 48.09 20.95 90.29 53.207 123.205 93.53 0.19 0.253 0.395 0.575 0.59 0.8 46.345 57.102 74.26 130.107 74.26 209.579l-75.81 0c-1.94 0-3.845 1.048-4.84 2.895-1 1.845-0.855 3.997 0.255 5.645l127.43 193.454c0.96 1.495 2.66 2.465 4.6 2.465 1.895 0 3.595-0.97 4.595-2.465l127.345-193.454c1.095-1.648 1.245-3.8 0.25-5.645-1.005-1.847-2.895-2.895-4.85-2.895l-75.75 0L941.485266 506.951z"
          p-id="5865"></path>
</svg>