<?xml version="1.0" encoding="UTF-8"?>
<svg id="uuid-471e7dd3-8710-47a7-a01a-33b30b047321" data-name="图层 1" xmlns="http://www.w3.org/2000/svg" viewBox="0 0 1022.73 870.84">
  <path d="m698.85,706.29c-56.83,40.33-123.34,60.55-191.36,59.62-8.99-.09-17.93-.58-26.77-1.35-3.6-.34-7.19-.95-10.84-1.4-6.94-.95-13.88-1.9-20.62-3.22-4.2-.8-8.29-1.88-12.39-2.84-6.64-1.58-13.23-3.17-19.73-5.12-3.1-.97-6.14-2.09-9.24-3.15-7.44-2.52-14.88-5.14-22.12-8.21-1.65-.67-3.24-1.45-4.85-2.2-8.49-3.77-16.83-7.71-24.92-12.16-.4-.2-.7-.37-1.1-.57-27.37-15.21-52.39-34.21-74.36-56.41-.35-.35-.7-.75-1.05-1.15-6.84-6.91-13.33-14.18-19.52-21.72-1.3-1.62-2.55-3.34-3.85-4.98-44.7-56.61-71.66-128.24-71.66-206.16h75.81c1.95,0,3.85-1.05,4.85-2.89,1-1.83.85-4-.25-5.62l-127.39-193.48c-1-1.5-2.69-2.5-4.61-2.5s-3.59,1-4.59,2.5L.91,426.73c-1.08,1.65-1.25,3.8-.25,5.64,1,1.85,2.9,2.89,4.84,2.89h75.81c0,91.6,28.21,176.53,76.12,246.73.6.97,1,2.02,1.65,2.99,4.99,7.2,10.49,13.8,15.83,20.6,1.95,2.57,3.85,5.21,5.89,7.74,7.84,9.64,16.18,18.67,24.72,27.54.85.87,1.6,1.74,2.4,2.52,28.77,29.16,61.28,53.73,96.68,73.35.9.59,1.8,1.13,2.8,1.66,10.19,5.54,20.67,10.56,31.31,15.3,2.64,1.15,5.19,2.42,7.89,3.57,9.09,3.8,18.43,7.15,27.82,10.34,4.44,1.53,8.84,3.08,13.33,4.47,8.24,2.47,16.63,4.52,25.07,6.57,5.64,1.33,11.19,2.74,16.93,3.84,2.34.49,4.59,1.22,6.94,1.59,7.99,1.43,15.98,2.22,23.97,3.22,2.89.33,5.74.82,8.59,1.15,14.39,1.42,28.67,2.38,42.95,2.38,87.45,0,172.74-27.08,245.9-78.98,23.32-16.58,29.01-49.1,12.67-72.76-16.37-23.67-48.59-29.39-71.91-12.81m242.6-271.02c-.04-91.33-28.07-176.08-75.76-246.14-.71-1.2-1.2-2.42-1.95-3.52-5.95-8.57-12.39-16.55-18.83-24.57-.75-.98-1.45-2-2.24-2.95-43.65-53.6-98.43-95.03-160.55-122.1-1.7-.75-3.4-1.6-5.1-2.35-9.93-4.12-20.07-7.76-30.26-11.24-3.7-1.22-7.34-2.57-11.09-3.69-8.89-2.72-17.92-4.94-27.02-7.07-5.04-1.18-10.04-2.47-15.12-3.47-2.55-.5-4.9-1.25-7.4-1.69-6.79-1.2-13.64-1.73-20.42-2.6-4.7-.6-9.34-1.35-14.09-1.85-11.43-1.07-22.77-1.52-34.1-1.72-2.04,0-4.09-.32-6.14-.32-.35,0-.7.1-1.1.12-87.29.07-172.44,26.76-245.5,78.6-23.37,16.53-29.06,49.11-12.73,72.75,16.33,23.65,48.59,29.39,71.91,12.81,56.43-40.02,122.3-60.27,189.81-59.67,9.74.07,19.28.55,28.72,1.45,2.95.35,5.79.77,8.69,1.15,7.79.95,15.48,2.07,23.07,3.6,3.35.65,6.69,1.52,9.93,2.27,7.45,1.7,14.9,3.52,22.18,5.74,2.29.75,4.54,1.57,6.83,2.35,8.34,2.75,16.48,5.72,24.52,9.09.81.35,1.66.77,2.45,1.1,48.09,20.95,90.29,53.21,123.21,93.53.19.25.4.58.59.8,46.34,57.1,74.26,130.11,74.26,209.58h-75.81c-1.94,0-3.84,1.05-4.84,2.89-1,1.85-.85,4,.26,5.64l127.43,193.45c.96,1.49,2.66,2.47,4.6,2.47s3.59-.97,4.59-2.47l127.35-193.45c1.09-1.65,1.24-3.8.25-5.64-1.01-1.85-2.9-2.89-4.85-2.89h-75.75s0,0,0,0Z"/>
</svg>