<?xml version="1.0" encoding="UTF-8"?>
<svg id="uuid-0d3ce5bf-7c2b-4961-ace6-1f8c81dd17fe" data-name="图层 1" xmlns="http://www.w3.org/2000/svg" viewBox="0 0 957.79 936.64">
  <path d="m747.06,807.68c0,32.34-26.22,58.56-58.56,58.56h-421.44c-32.31-.09-58.47-26.25-58.56-58.56V186.72h538.56v620.96ZM325.46,81.76c-.09-6.54,5.14-11.91,11.68-12,.11,0,.21,0,.32,0h281.28c6.54-.09,11.91,5.14,12,11.68,0,.11,0,.21,0,.32v34.56h-305.28v-34.56Zm597.12,34.56h-222.08v-34.56c0-45.15-36.61-81.76-81.76-81.76h-281.28c-45.08.18-81.58,36.68-81.76,81.76v34.56H32.98C13.5,117.63-1.23,134.49.08,153.98c1.19,17.66,15.25,31.71,32.9,32.9h105.12v620.8c0,71.22,57.74,128.96,128.96,128.96h421.44c71.22,0,128.96-57.74,128.96-128.96h0V186.72h105.12c19.44,0,35.2-15.76,35.2-35.2h0c.36-19.08-14.82-34.84-33.91-35.2-.43,0-.86,0-1.29,0h0Zm-444.8,644.16c19.44,0,35.2-15.76,35.2-35.2,0-.05,0-.11,0-.16v-374.88c0-19.44-15.74-35.21-35.18-35.22-19.44,0-35.21,15.74-35.22,35.18v374.91c-.09,19.44,15.6,35.27,35.04,35.36.05,0,.11,0,.16,0m-164.32,0c19.53,0,35.36-15.83,35.36-35.36v-374.88c1.31-19.48-13.42-36.34-32.9-37.66-19.48-1.31-36.34,13.42-37.66,32.9-.11,1.58-.11,3.17,0,4.75v374.88c.5,19.26,15.95,34.77,35.2,35.36m328.64,0c19.47-.09,35.2-15.89,35.2-35.36v-374.88c1.31-19.48-13.42-36.34-32.9-37.66-19.48-1.31-36.34,13.42-37.66,32.9-.11,1.58-.11,3.17,0,4.75v374.88c0,19.53,15.83,35.36,35.36,35.36"/>
</svg>