<?xml version="1.0" encoding="UTF-8"?>
<svg id="uuid-403228a1-4a37-4731-b179-5bc02baf0e16" data-name="图层 1" xmlns="http://www.w3.org/2000/svg" viewBox="0 0 96.06 93.75">
  <path d="m49.19,37.44c2.56,0,4.94,1.06,6.62,2.75s2.75,4.06,2.75,6.62-1.06,4.94-2.75,6.62-4.06,2.75-6.62,2.75-4.94-1.06-6.62-2.75-2.75-4.06-2.75-6.62,1.06-4.94,2.75-6.62,4.06-2.75,6.62-2.75Z"/>
  <path d="m7.25,25.94c3.5-7.06,8.81-13.19,15.38-17.69C30.44,2.88,39.69,0,49.19,0c12.44,0,24.31,4.94,33.12,13.75s13.75,20.69,13.75,33.12-4.94,24.31-13.75,33.12-20.69,13.75-33.12,13.75c-11.75,0-23-4.38-31.69-12.31S3.5,62.69,2.5,51l-.19-1.88,7.44-.62.19,1.88c.88,9.81,5.31,18.94,12.62,25.62,7.25,6.69,16.75,10.31,26.56,10.31,10.5,0,20.44-4.12,27.81-11.5s11.5-17.38,11.5-27.81-4.12-20.44-11.5-27.81-17.38-11.5-27.81-11.5c-8,0-15.75,2.44-22.31,6.94-5.12,3.56-9.31,8.19-12.25,13.62l-7.31-2.12v-.19Z"/>
  <path d="m25.94,29l-17.62,5.94-1.75.56-.62-1.75L0,16.06l25.94,12.94Z"/>
</svg>