<?xml version="1.0" encoding="UTF-8"?>
<svg id="uuid-35164155-0ada-43e7-8e00-3652bb484c5b" data-name="图层 1" xmlns="http://www.w3.org/2000/svg" viewBox="0 0 1023.65 1023.62">
  <path d="m972.18,405.56l-98.01-19.64c-4.93-14.06-10.66-27.83-17.18-41.23l55.53-83.3c16.92-25.37,13.57-59.15-8-80.71l-61.55-61.55c-21.54-21.6-55.35-24.95-80.71-8l-83.3,55.5c-13.42-6.51-27.21-12.23-41.3-17.15l-19.64-98.05C612.07,21.52,585.8-.02,555.3,0h-87.01c-30.5,0-56.75,21.53-62.73,51.44l-19.64,98.05c-14.17,4.93-27.93,10.72-41.23,17.15l-83.27-55.5c-25.37-16.97-59.2-13.62-80.74,8l-61.51,61.55c-21.56,21.56-24.9,55.34-8,80.71l55.5,83.3c-6.46,13.34-12.22,27.09-17.15,41.27l-98.08,19.61C21.53,411.53,0,437.79,0,468.29v87.01c0,30.5,21.53,56.75,51.44,62.73l98.05,19.67c4.93,14.17,10.72,27.93,17.15,41.23l-55.47,83.3c-16.92,25.37-13.57,59.15,8,80.71l61.55,61.55c21.54,21.6,55.35,24.95,80.71,8l83.3-55.53c13.34,6.49,27.09,12.25,41.27,17.18l19.61,98.01c5.96,29.92,32.22,51.46,62.73,51.47h87.01c30.51,0,56.77-21.55,62.73-51.47l19.67-98.01c14.17-4.93,27.93-10.75,41.23-17.18l83.3,55.53c25.37,16.93,59.16,13.58,80.71-8l61.55-61.55c21.56-21.56,24.9-55.34,8-80.71l-55.53-83.3c6.49-13.37,12.25-27.13,17.18-41.3l98.01-19.61c29.92-5.96,51.46-32.22,51.47-62.73v-87.01c0-30.49-21.56-56.75-51.47-62.73h0Zm-110.59,169.38c-22.23,4.44-40.44,20.33-47.86,41.75-4.13,11.8-8.92,23.26-14.3,34.36-9.93,20.4-8.28,44.54,4.32,63.4l55.53,83.3-61.55,61.55-83.3-55.53c-18.84-12.59-42.94-14.26-63.34-4.38-11.13,5.37-22.55,10.24-34.42,14.36-21.39,7.44-37.25,25.65-41.68,47.86l-19.67,98.08h-87.01l-19.61-98.08c-4.43-22.22-20.31-40.43-41.71-47.86-11.73-4.11-23.21-8.88-34.39-14.3-20.39-9.93-44.52-8.28-63.37,4.32l-83.3,55.53-61.55-61.55,55.5-83.3c12.57-18.87,14.2-42.99,4.38-63.34-5.44-11.19-10.22-22.68-14.33-34.42-7.45-21.38-25.65-37.24-47.86-41.68l-98.05-19.67-.06-87.04,98.08-19.61c22.21-4.45,40.42-20.31,47.86-41.71,4.13-11.8,8.89-23.29,14.3-34.39,9.91-20.4,8.26-44.52-4.35-63.37l-55.47-83.3,61.51-61.55,83.3,55.5c18.84,12.59,42.94,14.26,63.34,4.38,11.18-5.44,22.66-10.22,34.39-14.33,21.4-7.44,37.27-25.64,41.71-47.86l19.64-98.05,87.01-.03,19.61,98.08c4.45,22.23,20.33,40.43,41.75,47.86,11.8,4.13,23.26,8.89,34.36,14.3,20.41,9.9,44.54,8.25,63.4-4.35l83.3-55.5,61.55,61.55-55.53,83.3c-12.53,18.86-14.2,42.93-4.38,63.34,5.37,11.1,10.24,22.55,14.36,34.39,7.43,21.41,25.63,37.28,47.86,41.71l98.01,19.64.1,87.01-98.08,19.64h0Z"/>
  <path d="m511.82,287.87c-123.66-1.47-225.1,97.59-226.57,221.25-1.47,123.66,97.59,225.1,221.25,226.57,1.78.02,3.57.02,5.35,0,123.67-.06,223.88-100.36,223.82-224.03-.06-123.6-100.25-223.78-223.85-223.82v.03Zm0,419.89c-108.23.02-195.98-87.7-196-195.93s87.7-195.98,195.93-196,195.98,87.7,196,195.93v.06c-.04,108.2-87.74,195.9-195.93,195.93Z"/>
  <path d="m511.82,383.84c-70.67,0-127.96,57.29-127.96,127.96s57.29,127.96,127.96,127.96,127.96-57.29,127.96-127.96-57.29-127.96-127.96-127.96Zm0,223.96c-53-1.37-94.86-45.44-93.49-98.45,1.32-51.08,42.41-92.17,93.49-93.49,53,1.37,94.86,45.44,93.49,98.45-1.32,51.08-42.41,92.17-93.49,93.49Z"/>
</svg>