<?xml version="1.0" encoding="UTF-8"?>
<svg id="uuid-7565f8c9-1270-447a-8c7c-e26dd7f37322" xmlns="http://www.w3.org/2000/svg" viewBox="0 0 112.01 112.01">
  <path d="m56,80c6.83-.17,12.5-2.5,17-7s6.83-10.16,7-17c-.17-6.83-2.5-12.5-7-17s-10.16-6.83-17-7c-6.83.17-12.5,2.5-17,7s-6.83,10.16-7,17c.17,6.83,2.5,12.5,7,17s10.16,6.83,17,7Zm0,8c-9.08-.25-16.62-3.38-22.62-9.38s-9.12-13.54-9.38-22.62c.25-9.08,3.38-16.62,9.38-22.62s13.54-9.12,22.62-9.38c9.08.25,16.62,3.38,22.62,9.38s9.12,13.54,9.38,22.62c-.25,9.08-3.38,16.62-9.38,22.62s-13.54,9.12-22.62,9.38ZM56,0c1.17,0,2.13.38,2.88,1.12.74.75,1.12,1.71,1.12,2.88v8c.04,1.07-.37,2.12-1.12,2.88-.76.75-1.81,1.16-2.88,1.12-1.07.04-2.12-.37-2.88-1.12-.75-.76-1.16-1.81-1.12-2.88V4c0-1.17.38-2.13,1.12-2.88.76-.75,1.81-1.16,2.88-1.12Zm0,96c1.17,0,2.13.38,2.88,1.12.74.75,1.12,1.71,1.12,2.88v8c.04,1.07-.37,2.12-1.12,2.88-.76.75-1.81,1.16-2.88,1.12-1.07.04-2.12-.37-2.88-1.12-.75-.76-1.16-1.81-1.12-2.88v-8c0-1.17.38-2.13,1.12-2.88.76-.75,1.81-1.16,2.88-1.12ZM16.38,16.38c.78-.73,1.81-1.13,2.88-1.12,1.08,0,2,.37,2.75,1.12l5.75,5.62c1,1.17,1.3,2.48.94,3.94-.3,1.38-1.38,2.46-2.76,2.75-1.38.39-2.87.04-3.93-.94l-5.63-5.75c-.74-.72-1.14-1.72-1.12-2.75,0-1.09.38-2.05,1.12-2.88,0,0,0,0,0,0Zm67.87,67.87c.78-.73,1.81-1.13,2.88-1.12,1.08,0,2.04.38,2.88,1.12l5.62,5.76c.74.74,1.12,1.66,1.12,2.75,0,1.06-.42,2.08-1.19,2.81-.73.77-1.75,1.2-2.81,1.19-1.03.02-2.03-.39-2.75-1.13l-5.75-5.62c-.73-.78-1.13-1.81-1.12-2.88,0-1.08.37-2.04,1.12-2.87h0ZM0,56c0-1.17.38-2.13,1.12-2.88.76-.75,1.81-1.16,2.88-1.12h8c1.17,0,2.13.38,2.88,1.12.74.75,1.12,1.71,1.12,2.88.04,1.07-.37,2.12-1.12,2.88-.76.75-1.81,1.16-2.88,1.12H4c-1.07.04-2.12-.37-2.88-1.12-.75-.76-1.16-1.81-1.12-2.88Zm96,0c0-1.17.38-2.13,1.12-2.88.76-.75,1.81-1.16,2.88-1.12h8c1.17,0,2.13.38,2.88,1.12.74.75,1.12,1.71,1.12,2.88.04,1.07-.37,2.12-1.12,2.88-.76.75-1.81,1.16-2.88,1.12h-8c-1.07.04-2.12-.37-2.88-1.12-.75-.76-1.16-1.81-1.12-2.88ZM16.38,95.63c-.73-.78-1.13-1.81-1.12-2.88,0-1.08.37-2,1.12-2.75l5.62-5.75c.78-.73,1.81-1.13,2.88-1.12,1.06,0,2.08.42,2.81,1.19.77.73,1.19,1.75,1.18,2.81,0,1.07-.39,2.1-1.12,2.88l-5.75,5.62c-.72.74-1.72,1.14-2.75,1.12-1.07,0-2.1-.39-2.88-1.12,0,0,0,0,0,0ZM84.25,27.75c-.73-.78-1.13-1.81-1.12-2.88,0-1.08.38-2.04,1.12-2.87l5.76-5.62c.72-.74,1.72-1.14,2.75-1.12,1.06,0,2.08.42,2.81,1.18.77.73,1.2,1.75,1.19,2.81,0,1.09-.38,2-1.13,2.76l-5.62,5.75c-.78.73-1.81,1.13-2.88,1.12-1.07,0-2.09-.39-2.87-1.12h0s0,0,0,0Z"/>
</svg>