<?xml version="1.0" encoding="UTF-8"?>
<svg id="uuid-bd4cea3c-6501-4077-a8b0-ea424d43cdc5" data-name="图层 1" xmlns="http://www.w3.org/2000/svg" viewBox="0 0 112 109.87">
  <path d="m61.09,61.28c5.55,3.29,12.39,3.29,17.94,0,5.55-3.29,8.97-9.38,8.97-15.97,0-10.18-8.03-18.44-17.94-18.44s-17.94,8.25-17.94,18.44c0,6.59,3.42,12.67,8.97,15.97Z" style="fill: #a5e8d0;"/>
  <path d="m50.91,109.87c-2.36,0-4.82-.22-7.51-.56l-.67-.11c-19.07-2.92-32.08-21.44-32.64-22.23C-8.31,58.9.89,30.5,18.27,14.78,35.54-.94,64.37-7.67,89.6,12.65c16.26,13.14,21.2,31.32,21.42,32.11v.22c2.36,12.8.45,22.23-5.72,28.29-9.42,9.09-25.01,6.18-27.14,5.73-2.92-.34-5.05.56-6.62,2.47-1.68,2.13-2.02,4.94-1.46,6.62,1.57,4.72,1.79,8.31.67,11-3.25,7.07-9.87,10.78-19.85,10.78Zm-6.5-10.06l.64.11c10.27,1.59,16.52-.42,19.06-6.15,0-.11.53-1.48-.85-5.72-1.38-3.82-.32-8.8,2.44-12.19,2.86-3.6,7.1-5.19,12.07-4.66l.32.11c.11,0,13.24,2.86,20.02-3.71,4.13-4.03,5.4-11.02,3.6-20.78-.42-1.38-4.98-16.33-18.11-26.82-20.76-16.96-44.58-11.34-58.99,1.7-13.24,12.08-22.98,35.09-6.67,60,.11,0,11.23,15.9,26.48,18.13h0Z"/>
  <path d="m17.37,57c0-3.73,3.02-6.75,6.75-6.75s6.75,3.02,6.75,6.75-3.02,6.75-6.75,6.75-6.75-3.02-6.75-6.75Zm11.25-14.4c-2.09-1.21-3.37-3.43-3.38-5.85,0-3.73,3.02-6.75,6.75-6.75s6.75,3.02,6.75,6.75c0,3.73-3.02,6.75-6.75,6.75-1.18,0-2.35-.31-3.37-.9Zm16.75-16.97c0-3.73,3.02-6.75,6.75-6.75s6.75,3.02,6.75,6.75-3.02,6.75-6.75,6.75-6.75-3.02-6.75-6.75Zm22.5,5.5c0-3.73,3.02-6.75,6.75-6.75s6.75,3.02,6.75,6.75-3.02,6.75-6.75,6.75-6.75-3.02-6.75-6.75Zm11.25,18c0-3.73,3.02-6.75,6.75-6.75s6.75,3.02,6.75,6.75-3.02,6.75-6.75,6.75-6.75-3.02-6.75-6.75Z"/>
</svg>