<?xml version="1.0" encoding="UTF-8"?>
<svg id="uuid-99caccee-3e32-427f-9fb2-0f7601229b1d" data-name="图层 1" xmlns="http://www.w3.org/2000/svg" viewBox="0 0 924.55 891.98">
  <path d="m385.85,764.82H127.16c-35.08,0-63.89-28.81-63.89-63.89V191.05c0-35.08,28.81-63.89,63.89-63.89h258.7v-63.27H127.16C57,63.89,0,120.89,0,191.05v509.88c0,70.16,57,127.16,127.16,127.16h258.7v-63.27h0Zm365.81,0h45.73c35.08,0,63.89-28.81,63.89-63.89h63.27c0,70.15-57,127.16-127.16,127.16h-45.73v-63.27h0Zm-63.89,0v63.89h-144.7v-63.89h144.7Zm173.51-127.78v-159.1h63.27v159.1h-63.27Zm0-222.99v-159.1h63.27v159.1h-63.27Zm0-222.99c0-35.08-28.81-63.89-63.89-63.89h-45.73v-63.27h45.73c70.16,0,127.16,57,127.16,127.16h-63.27Zm-173.51-63.89h-144.7v-63.27h144.7v63.27ZM437.22,0h63.89v891.98h-63.89V0h0Z"/>
  <path d="m222.37,275.61h55.75l114,341.38h-51.99l-26.93-85.81h-125.28l-27.56,85.19h-51.99l114-340.76h0Zm-20.04,209.84h95.84l-46.98-149.71h-1.88l-46.98,149.71h0Zm364.56-209.84h136.55c29.44,0,53.24,8.14,69.53,24.43,15.66,15.03,23.18,35.7,23.18,61.39,0,19.42-4.39,35.08-11.9,48.86-8.14,12.53-20.04,22.55-34.45,28.19,19.42,4.39,34.45,13.15,44.47,26.94,9.4,13.15,14.41,31.95,14.41,55.12,0,34.45-10.65,59.51-30.69,75.79-17.54,13.16-42.59,20.04-74.54,20.04h-137.18v-340.76h.63Zm48.86,45.73v97.72h74.54c20.67,0,35.71-4.38,44.47-11.9,8.14-8.14,13.16-21.3,13.16-38.84,0-16.29-4.39-28.19-13.16-35.08-9.4-7.52-23.18-11.27-43.22-11.27l-75.79-.63h0Zm0,143.44v105.86h80.8c18.16,0,33.2-3.13,43.22-10.02,13.16-8.77,20.04-21.92,20.04-41.34s-5.01-33.2-14.41-41.97c-10.02-8.77-25.68-13.15-47.61-13.15l-82.06.63Z"/>
</svg>