<?xml version="1.0" encoding="UTF-8"?>
<svg id="uuid-67967711-d758-431a-8fc5-b05e367d2a6c" data-name="图层 1" xmlns="http://www.w3.org/2000/svg" viewBox="0 0 175 175">
  <path d="m162.5,87.5c0-41.42-33.58-75-75-75S12.5,46.08,12.5,87.5s33.58,75,75,75,75-33.58,75-75Zm12.5,0c0,48.32-39.18,87.5-87.5,87.5S0,135.82,0,87.5,39.18,0,87.5,0s87.5,39.18,87.5,87.5Z"/>
  <path d="m126.81,70.56c2.45-2.45,6.42-2.45,8.88,0s2.45,6.42,0,8.88l-43.75,43.75c-2.43,2.45-6.39,2.47-8.84.04-.01-.01-.02-.02-.04-.04l-43.75-43.75c-2.45-2.45-2.45-6.42,0-8.88s6.42-2.45,8.88,0l39.31,39.38,39.31-39.38Z"/>
</svg>