<?xml version="1.0" encoding="UTF-8"?>
<svg id="uuid-d285ab17-ffde-4c7b-9c22-c3e177a7983f" data-name="图层 1" xmlns="http://www.w3.org/2000/svg" viewBox="0 0 824.04 791.02">
  <path d="m732.25.03H236.1C186.63.03,146.54,40.12,146.54,89.59h0v219.86c-23.6,5.03-45.41,16.32-63.14,32.69l-8.51,6.72L7.27,400.35c-4.06,2.77-6.69,7.2-7.16,12.09-.48,5.27.61,10.57,3.13,15.22,6.38,8.51,18.45,10.24,26.96,3.86.12-.09.24-.18.36-.28l75.68-58.21c21.19-21.9,52.07-31.51,81.95-25.52h118.66c9.41-.59,18.19,4.78,21.94,13.43,2.39,6.66,2.39,13.94,0,20.6-3.41,8.95-12.42,14.47-21.94,13.43h-102.99c-10.51,1.62-17.72,11.45-16.1,21.96,1.28,8.31,7.8,14.83,16.1,16.1h378.38c9.45-.73,18.3,4.69,21.94,13.43.85,3.38.85,6.92,0,10.3v10.3c-3.65,8.75-12.49,14.16-21.94,13.43h-229.27c-10.51,1.62-17.72,11.45-16.1,21.96,1.28,8.31,7.8,14.83,16.1,16.1h71.65c9.51-.52,18.38,4.8,22.39,13.43.85,3.38.85,6.92,0,10.3v10.3c-3.88,8.81-12.77,14.33-22.39,13.88h-69.86c-10.46,0-19.01,8.35-19.25,18.81.47,10.36,8.89,18.58,19.25,18.81h61.35c9.39-.07,18.03,5.12,22.39,13.43v20.6c-3.2,9.52-12.36,15.75-22.39,15.22h-61.35c-10.39,0-18.81,8.42-18.81,18.81s8.42,18.81,18.81,18.81h25.52c9.36.08,17.86,5.46,21.94,13.88,1.44,3.71,1.75,7.76.9,11.64.27,3.43.27,6.87,0,10.3-3.65,8.75-12.49,14.16-21.94,13.43h-240.46l-116.43-18.81h-4.93c-9.09.38-16.79,6.8-18.81,15.67-2.15,10.17,3.61,20.34,13.43,23.73l120.46,29.55h246.28c4.59.85,9.29.85,13.88,0h339.87c49.46,0,89.56-40.1,89.56-89.56V89.59C824.06,40.12,783.97.02,734.51,0c-.76,0-1.51,0-2.27.03Zm-447.79,118.22h391.82c8.89-.51,16.51,6.28,17.02,15.17.04.61.04,1.23,0,1.84.51,8.89-6.28,16.51-15.17,17.02-.61.04-1.23.04-1.84,0h-393.61c-8.89.55-16.54-6.2-17.09-15.09-.06-.94-.03-1.88.07-2.82-.01-8.9,7.19-16.13,16.1-16.15.31,0,.61,0,.92.02h1.79Zm0,140.16c-8.89.51-16.51-6.28-17.02-15.17-.04-.61-.04-1.23,0-1.84-.75-8.87,5.83-16.67,14.7-17.43.18-.01.35-.03.53-.04h393.61c8.89-.53,16.52,6.25,17.05,15.14.05.77.04,1.55-.03,2.33.51,8.89-6.28,16.51-15.17,17.02-.61.04-1.23.04-1.84,0h-391.82Z"/>
</svg>