<svg viewBox="0 0 1024 1024" xmlns="http://www.w3.org/2000/svg" t="1683096165139"
     version="1.1" p-id="5038">
    <g stroke="null">
        <path stroke="null" p-id="5405"
              d="m82.76543,491.92594a99.48148,99.48148 0 0 1 99.48148,-99.48148l33.16049,0l0,66.32099l-33.16049,0a33.1605,33.1605 0 0 0 -33.1605,33.1605l0,132.64198a99.48148,99.48148 0 0 1 -99.48148,99.48148l0,-66.32099a33.1605,33.1605 0 0 0 33.1605,-33.16049l0,-132.64198z"/>
        <path stroke="null" p-id="5406"
              d="m149.08642,757.20989a99.48148,99.48148 0 0 0 -99.48148,-99.48148l-33.1605,0l0,66.32099l33.1605,0a33.1605,33.1605 0 0 1 33.1605,33.16049l0,132.64198a99.48148,99.48148 0 0 0 99.48148,99.48148l0,-66.32099a33.1605,33.1605 0 0 1 -33.1605,-33.1605l0,-132.64198zm464.24691,-265.28395a99.48148,99.48148 0 0 0 -99.48148,-99.48148l-33.16049,0l0,66.32099l33.16049,0a33.1605,33.1605 0 0 1 33.1605,33.1605l0,132.64198a99.48148,99.48148 0 0 0 99.48148,99.48148l0,-66.32099a33.1605,33.1605 0 0 1 -33.1605,-33.16049l0,-132.64198z"/>
        <path stroke="null" p-id="5407"
              d="m547.01234,757.20989a99.48148,99.48148 0 0 1 99.48148,-99.48148l33.1605,0l0,66.32099l-33.1605,0a33.1605,33.1605 0 0 0 -33.1605,33.16049l0,132.64198a99.48148,99.48148 0 0 1 -99.48148,99.48148l0,-66.32099a33.1605,33.1605 0 0 0 33.1605,-33.1605l0,-132.64198z"/>
    </g>
    <path stroke="null" d="m1008.57088,217.62383l0,58.04183l-464.33459,0l0,-58.04183l464.33459,0z" p-id="2294"/>
</svg>