<svg viewBox="0 0 1024 1024" xmlns="http://www.w3.org/2000/svg" t="1683096165139"
     version="1.1" p-id="5038">
    <path p-id="5039"
          d="m214.61538,391.33624l-83.39512,0a530.19984,530.19984 0 0 0 -92.21735,299.62317c0,111.09362 34.02387,214.26386 92.21735,299.62317l83.39512,0a464.18287,464.18287 0 0 1 -109.02954,-299.62317c0,-114.05655 40.9485,-218.55846 109.02954,-299.62317zm181.43848,599.24634a464.18287,464.18287 0 0 0 109.02954,-299.62317c0,-114.05655 -40.9485,-218.55846 -109.02954,-299.62317l83.4284,0a530.19984,530.19984 0 0 1 92.18406,299.62317c0,111.09362 -34.02387,214.26386 -92.21735,299.62317l-83.39512,0l0.00001,0z"
          stroke="null"/>
    <path stroke="null" d="m1008.57088,217.62383l0,58.04183l-464.33459,0l0,-58.04183l464.33459,0z" p-id="2294"/>
</svg>